/* XPM */
static char * xbgmap[] = {
"16 16 3 1",
" 	g None",
".	g #FFFFFF",
"+	g #C0C0C0",
"........++++++++",
"........++++++++",
"........++++++++",
"........++++++++",
"........++++++++",
"........++++++++",
"........++++++++",
"........++++++++",
"++++++++........",
"++++++++........",
"++++++++........",
"++++++++........",
"++++++++........",
"++++++++........",
"++++++++........",
"++++++++........"};
