/* XPM */
static char *xpovicon[] = {
/* width height ncolors chars_per_pixel */
"48 48 199 2",
/* colors */
"   c none",
" . c #B0AFB0",
" X c #AFA7AF",
" o c #2F384F",
" O c #003870",
" + c #00274F",
" @ c #6080A0",
" # c #606F7F",
" $ c #6F6C70",
" % c #90AFCF",
" & c #A09FA0",
" * c #0070E0",
" = c #3F6090",
" - c #005FBF",
" ; c #104F90",
" : c #9F979F",
" > c #203040",
" , c #6F8FBF",
" < c #CFD7EF",
" 1 c #5F5C60",
" 2 c #1070DF",
" 3 c #908F90",
" 4 c #2F5080",
" 5 c #8F878F",
" 6 c #0079F0",
" 7 c #807F80",
" 8 c #CFE0FF",
" 9 c #4087CF",
" 0 c #7F777F",
" q c #001020",
" w c #5077A0",
" e c #206FC0",
" r c #9098A0",
" t c #8FA7C0",
" y c #80A0CF",
" u c #004890",
" i c #00376F",
" p c #706F70",
" a c #10101F",
" s c #6F676F",
" d c #2F80DF",
" f c #006FDF",
" g c #105FB0",
" h c #9FA7BF",
" j c #5080B0",
" k c #605F60",
" l c #B0B7BF",
" z c #5F575F",
" x c #3F4750",
" c c #504F50",
" v c #A0A7AF",
" b c #FFFEFF",
" n c #1068C0",
" m c #10579F",
" M c #4F474F",
" N c #709FCF",
" B c #808FA0",
" V c #1F3F6F",
" C c #002040",
" Z c #000F1F",
" A c #5F7790",
" S c #BFBFC0",
" D c #4F7FBF",
" F c #B0B8CF",
" G c #403F40",
" H c #F0F0F0",
" J c #2F588F",
" K c #0058B0",
" L c #00478F",
" P c #3F373F",
" I c #EFE8EF",
" U c #6F778F",
" Y c #CFD0E0",
" T c #0081FF",
" R c #3F80D0",
" E c #007FFF",
" W c #106FD0",
" Q c #302F30",
" ! c #E0E0E0",
" ~ c #2F272F",
" ^ c #DFD8DF",
" / c #4098FF",
" ( c #AFD0FF",
" ) c #BFC0D0",
" _ c #2F74C0",
" ` c #9F9DA0",
" ' c #8FA7CF",
" ] c #102F4F",
" [ c #201F20",
" { c #D0D0D0",
" } c #1F171F",
" | c #1F4F8F",
".  c #003060",
".. c #001F3F",
".X c #100F10",
".o c #C0C0C0",
".O c #0068D0",
".+ c #0057AF",
".@ c #10305F",
".# c #B0B0B0",
".$ c #AFA8AF",
".% c #204F7F",
".& c #70B0FF",
".* c #1F589F",
".= c #2F4870",
".- c #DFE8FF",
".; c #5F8CC0",
".: c #BFD4F0",
".> c #A0A0A0",
"., c #9FAFC0",
".< c #7098C0",
".1 c #70879F",
".2 c #6F90BF",
".3 c #000810",
".4 c #506F90",
".5 c #50586F",
".6 c #909090",
".7 c #004080",
".8 c #8F888F",
".9 c #002F5F",
".0 c #101F30",
".q c #2098FF",
".w c #208CFF",
".e c #A0A7B0",
".r c #0067CF",
".t c #1057A0",
".y c #808080",
".u c #7F8FA0",
".i c #7F787F",
".p c #4F87C0",
".a c #5F6070",
".s c #107CEF",
".d c #8F8F9F",
".f c #102840",
".g c #608FC0",
".h c #707070",
".j c #C0D7F0",
".k c #C0C0CF",
".l c #0070DF",
".z c #1060B0",
".x c #203F60",
".c c #2F2F30",
".v c #7F7F8F",
".b c #001830",
".n c #606060",
".m c #2077D0",
".M c #1F6FCF",
".N c #2F507F",
".B c #0050A0",
".V c #003F7F",
".C c #C0CFDF",
".Z c #6F80A0",
".A c #CFCAD0",
".S c #505050",
".D c #0077EF",
".F c #4F484F",
".G c #9FAFCF",
".H c #FFF7FF",
".J c #DFE7F0",
".K c #1F406F",
".L c #50779F",
".P c #404040",
".I c #F0EFF0",
".U c #3F383F",
".Y c #8FB0E0",
".T c #2FA7FF",
".R c #EFE7EF",
".E c #2F9FFF",
".W c #105FAF",
".Q c #303030",
".! c #E0DFE0",
".~ c #80808F",
".^ c #002850",
"./ c #00172F",
".( c #508FD0",
".) c #DFD7DF",
"._ c #5078AF",
".` c #0060C0",
".' c #004F9F",
".] c #103F70",
".[ c #EFF0FF",
".{ c #202020",
".} c #D0CFD0",
".| c #70707F",
"X  c #1F181F",
"X. c #6F7F9F",
"XX c #407FC0",
"Xo c #CFC7CF",
"XO c #AFB7C0",
"X+ c #3F88E0",
"X@ c #2F4060",
"X# c #101010",
"X$ c #C0BFC0",
"X% c #BFB7BF",
"X& c #405060",
"X* c #9FA7B0",
"X= c #30A0FF",
"X- c #000800",
"X; c None",
/* pixels */
"                                       5 5 5 5 5 5 5 5 5 5                                      ",
"                                 5 5 5X%.I H H.I.I I.R ^ X 5 5 5                                ",
"                           5 5 5.R b b b b b b b b.H H H I.R.!.o 5 5 5                          ",
"                         5X% b b b b b b b b b b.j.j.:.: <.I I ! ^.A 3 5                        ",
"                     5 5.H b b b b b b b 8.&.w E E E E 6.D *X+.Y Y.! {.o 5 5                    ",
"                   5 { b b b b b b b (.w T T T T T E E E 6 6.D *.O.(.C.)Xo ` 5                  ",
"                 5.R b b b b b b.[ / T -. .bX-X-X-X-X- C i.r.D.D * f W % {Xo.> 5                ",
"               5 H b b b b b b.-.s.V.3X# P $ 0 X 3 0 1.cX-X- q.B * f.O.` j {.o.$ 5              ",
"             5 H b b b b b b.-.z.3.S & ^ ^ ^ ^ ^.).).) { S p.XX- +.O.O.r -._.}X$.> 5            ",
"           5.! b b b b b b.J m P.o.! ^ ^ ^ ^.).}.AXo.oX$X$X$X%.SX-./.r.r.`.+ hXoX% 3 5          ",
"         5.A.H b b b b b I = 0 ^ ^ ^ ^.) {.A.oXO N R 9.2 . ..#.#.i.3...r.` K ;.k.o.$ 0 5        ",
"         5.I b b b b b.R.e 3 ^ ^ ^ ^.).}Xo S.< 6 E E 6 f gX. &.> X $ Z.7.` K.'.uXoX% & 5        ",
"       5.R H.H b b b.R ^.y ^ ^ ^ ^ {.AX$.# ,.D T T T 6 *.`.' U : : & o.b - K.' 4.AX$.$ 5X-      ",
"     5.>.I.H.H b b I ^ ^ ^ ^ ^ ^ {.AX$ . r W 6 T.q.T 6 f.`.' V ` : :.v...'.+.' OX$.o.# ` zX-    ",
"     5.!.I H.H b.I ^ ^ ^ ^ ^ ^.).AX$ . X @.r * 6.EX=.s.r K u. .~.> & `.@.'.+ u O `Xo S.> 7X-    ",
"     5.R.I.I H H.! ^ ^ ^ ^.).).}.oX%.$ X w -.O f *.l.r -.B.7.^ 1.$ X.>.N L.B u i `.oX$.$ 3X-    ",
"   5Xo.R.I.I H.R ^ ^.).).).) {.AX$.#.$.# A.B -.`.` - K.'.7. .b s.$ . X J.'.'.7.9.6X$X$ . :.nX-  ",
"   5.).R I I I.!.).).).).).) {XoX$X%X% S B.V u.'.B.' L.V.  C.3.8 ..# ..*.' u.V C.$ SX$.# ` 0X-  ",
"   5 ^.R I I.R.).).).).).).) {.AXoX$.oXo.o ] i O.V O i.^...3 ~.> ..# h.B u.7 i > .X% SX% & 7X-  ",
" 5 : ^.R.R.R.!.).).).).).).).}.}.AXo.}.} { :./ C C C.b qX-.X.i & .X% D u.7 O + 1.$.# SX%.>.y.PX-",
" 5X$ ^ ! ! ! ^.).).).).).).) { { { {.A _.A.}.6X X-X-X-X- ~.i.6 &.$ h.+.7 O.9.0.6.$.#X%X%.> 5 cX-",
" 5.o ^ ! !.!.).).).).).).) S { { { {.G.O d ) S . 0 c 1.i.6.6.6 ` v.W.7 O.9.b.S ` X.#X%X%.> 5 zX-",
" 5X$.).!.!.!.).).).) { { { ` l { { {.; f * 2.;X* & :.6.6.6.6.6 B.t.V i.9...c.6 `.$.#X%.#.> 5 zX-",
" 5X$ { ^.! ^.) { { { { { { {.5.1.A { e f f.O -.'.%X&.S.8.6.6.L L O. .^.b [.8.6 `.$X% S.#.>.y zX-",
" 5 S.} ^ ^ ^.) { { { { { { { {.a.x.Z.r * f.r.+ L.9 q.U.d.4 | O. .9 C q ~.8.6 : & .X% S.# &.y.SX-",
" 5.#.A.) ^.) { { { { { { { { { { :.@.` *.O -.' O.^ C.] i. .9.^ C./ a 1.6.6.6 : X.# S S.# `.i.FX-",
" 5.$Xo {.).) { { { { { { { { {.}.AXX f f.r.+.7.^.^.^.^ + C.b Z.X G.8.6.6.6 : &.$X%X$ S . :.h GX-",
" 5 `X$.} {.) { { { { { { { { {.}.A n *.O -.' i q Z Z.3.3 [ P $.6.6.6.6.6 : ` X.#X$.o S.$ 3 $ QX-",
" 5.hX%Xo.} { { { { { { { { { {.A.,.O f.r.+.7 C [.8.6.6.6.6.6.6.6.6.6.6 : &.> . S.o.oX%.> 5 k [X-",
"   5.$.o.A { { { { { { { { { {.}.g f f.`.'.9.3.i.6.6.6.6.6.6.6.6.6 : ` & X . S.oXo.o . `.i cX-  ",
"   5 &X%Xo.} { { { { { { { { { { _ f.O.+.V.b M.6.6.6.6.6.6 : : : ` &.>.$ . S.oXo.A S X 3 p.UX-  ",
"   5.y.$X$Xo.} { { { { { { { {.A.O f.` u.^ [.6.6.6 : : ` ` & &.> X.$ .X% S.oXo.}Xo.# &.y 1.{X-  ",
"     5 &.#.o.A.} { { { { { { { ' f.O.+ O Z.i.6.6 : ` &.>.$.$ . ..#X% SX$Xo.A.}.AX$.$ 3 p MX-    ",
"     5 5 XX%.o.A.} { { { { { {.( f.` u.. k :.6 : `.> X.$.#X%X%X% SX$.oXo.A.}.}.o.# ` 7 1 ~X-    ",
"     5.S.6.$ S.o.A.} { { { { {.m f.+. .c &.6.6 : & X.#X%X$.o.oXoXo.A.}.}.}.}.AX%.>.8 $.PX-X-    ",
"       5 0 ` . S.o.A.} { { { F f.r L.0 : `.6 : & X.# S.o.A.}.}.}.}.}.}.}.}.A S.$.6 0.S [X-      ",
"        X-.y ` . S.o.A.} { { y f K.^ $ X : : `.> . S.o.A.}.}.}.}.}.}.}.}.AX$.$ : 7 1 QX-        ",
"        X-.S.y `.$X%.o.A.} { R.r.7 x.#.> : `.>.$X%.o.A.}.}.}.}.}.}.}.}.AX$ . : 7.n.UX-X-        ",
"          X- 1.y `.$X%X$Xo.}.O K.f . . & : &.$.#X$Xo.}.}.}.}.}.}.}.}Xo S.$ : 7 s.PX#X-          ",
"            X- k 7.6.> . S t.O O 3X%.$ ` & X.#X$Xo.}.}.}.}.}.}.}.A.oX% X.6 7.n.P }X-            ",
"              X- z 0.8 ` X.p K x S.# X &.> . S.o.A.}.}.}.}.}.A.o S.$ &.8 0 k.UX#X-              ",
"                X- M $.y.6.M.K.>.$.> & ` XX%X$Xo.}.}.A.AXoX$X%.$ &.6.y $.S.Q.XX-                ",
"                  X-.Q 1 #.+.| :.6.6 3.6 &.$.# S S SX%.# . X `.6.y.h k.P.{X-X-                  ",
"                    X-X-.=X@ p 0.i.i 7.y 3 ` &.>.> & & : 3 5.i p k.F QX#X-X-                    ",
"                        X- } P c z k.n $ 0.i.y.y.y 7.i 0 $.n.S.P.cX#X-X-                        ",
"                          X-X-X-.{.Q G M c z 1 1 1 z.S M.U QX X-X-X-X-                          ",
"                                X-X-X-.X } [ [.{ [X  }.XX-X-X-X-                                ",
"                                      X-X-X-X-X-X-X-X-X-X-                                      "
};
